# xmcd
#
# Track frame offsets:
# 150
# 14552
# 28755
# 41247
# 53605
# 66142
# 78410
# 93250
# 110412
# 118980
# 128940
# 140430
# 155959
# 169716
# 180559
# 192979
# 203981
# 218096
# 231164
# 248224
# 259656
# 270186
# 278676
# 291321
# 307941
#
# Disc length: 4268 seconds
#
#
# Revision: 0
# Processed by: cddbd v1.5.2PL0 Copyright (c) Steve Scherf et al.
# Submitted via: FreeRIP 2.945 
#
DISCID=7010aa19
DTITLE=Grupo Pantanal
DYEAR=1900
DGENRE=
TTITLE0=La bailanta
TTITLE1=Ze valente
TTITLE2=Retorno
TTITLE3=Depois que a rosa mudou
TTITLE4=Velho laranjal
TTITLE5=A mão do tempo
TTITLE6=Che Florencia
TTITLE7=Paraje bandera bajada
TTITLE8=Bayle Ponta Porâ
TTITLE9=Sorriso e alegria
TTITLE10=O que tem a rosa
TTITLE11=Eu e o mestre
TTITLE12=Coisas do poeira
TTITLE13=Mi ponchilo
TTITLE14=A moça do chamame
TTITLE15=Paysano e Campero
TTITLE16=Voltarei em teus braços
TTITLE17=Morena Faceira
TTITLE18=Amor supremo
TTITLE19=El guazuncho
TTITLE20=La Cau
TTITLE21=Hermano Chello
TTITLE22=Bailando a chamarra
TTITLE23=Desejo chamamezeiro
TTITLE24=Campo vermelho
EXTD=
EXTT0=
EXTT1=
EXTT2=
EXTT3=
EXTT4=
EXTT5=
EXTT6=
EXTT7=
EXTT8=
EXTT9=
EXTT10=
EXTT11=
EXTT12=
EXTT13=
EXTT14=
EXTT15=
EXTT16=
EXTT17=
EXTT18=
EXTT19=
EXTT20=
EXTT21=
EXTT22=
EXTT23=
EXTT24=
PLAYORDER=
